<?xml version="1.0" encoding="UTF-8"?>
<svg width="16px" height="16px" viewBox="0 0 16 16" version="1.1" xmlns="http://www.w3.org/2000/svg" xmlns:xlink="http://www.w3.org/1999/xlink">
    <title>✧ Icon/AboutFlashcat </title>
    <defs>
        <linearGradient x1="-53.8470247%" y1="216.105183%" x2="76.7203263%" y2="27.3784796%" id="linearGradient-1">
            <stop stop-color="#0019F4" offset="0%"></stop>
            <stop stop-color="#8A62FF" offset="100%"></stop>
        </linearGradient>
    </defs>
    <g id="Symbols" stroke="none" stroke-width="1" fill="none" fill-rule="evenodd">
        <g id="✧-Icon/AboutFlashcat-">
            <rect id="矩形" fill="#D8D8D8" opacity="0" x="0" y="0" width="16" height="16"></rect>
            <path d="M8.53042936,1.25991913 L8.62778386,1.26737308 C8.95508266,1.31916237 9.17842726,1.62647399 9.12663797,1.9537728 C9.03607935,2.52608673 8.83893682,2.94011853 8.53823612,3.27647603 L8.44167943,3.3769128 L8.19517062,3.61238607 C8.19223753,3.61539482 8.18971219,3.6178885 8.18858102,3.62157698 L8.19035651,3.63793666 L8.22165123,3.69835974 L8.37522642,3.9395156 C9.0111816,3.97119119 9.68221879,4.082415 10.388552,4.27221355 L10.388552,4.27221355 L10.608662,4.335 L10.708191,4.13277098 C11.2700209,3.00341063 11.7950394,2.4012377 12.4206016,2.33430164 L12.4206016,2.33430164 L12.5391063,2.32802541 C13.1044397,2.32802541 13.5347313,2.93441253 13.8888152,4.01052616 L13.8888152,4.01052616 L14.0107174,4.40961266 L14.1268658,4.84637242 C14.1835973,5.07394808 14.2383867,5.31515053 14.2915573,5.56922872 L14.2915573,5.56922872 L14.3958358,6.09433023 L14.4963722,6.6524319 L14.5937415,7.24219853 L14.7351141,8.18329962 C14.7990618,8.6309336 14.8516801,9.13452499 14.8930709,9.69437656 L14.8930709,9.69437656 L14.9373573,10.3932227 L14.9709044,11.1461949 C14.9849998,11.5362319 14.9950826,11.9466098 15.001175,12.3773939 C15.0136557,13.2609521 14.3075185,13.9873442 13.4154814,14 L13.4154814,14 L2.59855954,14 C1.71495168,14 0.998676985,13.2836074 0.998676985,12.3957575 L0.998676985,12.3957575 L1.00624534,11.9533936 C1.00916372,11.8143322 1.0125263,11.6775357 1.0163339,11.5430017 L1.0163339,11.5430017 L1.04452619,10.7629275 C1.08925358,9.75897635 1.16256641,8.89951274 1.26488257,8.18329962 L1.26488257,8.18329962 L1.31147844,7.86229497 L1.40625525,7.24219853 L1.50362448,6.6524319 L1.60416095,6.09433023 L1.70843945,5.56922872 C2.13380394,3.53660319 2.66277273,2.32802541 3.46089038,2.32802541 C4.1394738,2.32802541 4.69486147,2.93282561 5.29180571,4.13277098 L5.29180571,4.13277098 L5.38966199,4.335 L5.61144472,4.27221355 C6.12096369,4.13530089 6.61211613,4.03927514 7.08498237,3.98450173 C6.91396741,3.49212276 6.9946123,3.12483076 7.33590594,2.77473207 L7.60440171,2.51733049 C7.62109729,2.50067599 7.63473239,2.48662881 7.64361521,2.47669267 C7.7909515,2.31188538 7.88694249,2.11028849 7.94138414,1.7662272 C7.9879945,1.47165827 8.24157795,1.26129226 8.53042936,1.25991913 Z" id="形状结合" fill="url(#linearGradient-1)"></path>
            <path d="M11.5208389,7.27 C12.9371667,7.27 14.1016777,8.30512088 14.1016777,9.605 C14.1016777,10.9048791 12.9371667,11.94 11.5208389,11.94 C10.104511,11.94 8.94,10.9048791 8.94,9.605 C8.94,8.30512088 10.104511,7.27 11.5208389,7.27 Z M11.515,7.73 C10.3309902,7.73 9.39,8.5788321 9.39,9.59903409 C9.39,10.6192361 10.3309902,11.4680682 11.515,11.4680682 C12.6990098,11.4680682 13.64,10.6192361 13.64,9.59903409 C13.64,8.5788321 12.6990098,7.73 11.515,7.73 Z M10.84,8.8 C11.2818278,8.8 11.64,9.1581722 11.64,9.6 C11.64,10.0418278 11.2818278,10.4 10.84,10.4 C10.3981722,10.4 10.04,10.0418278 10.04,9.6 C10.04,9.1581722 10.3981722,8.8 10.84,8.8 Z" id="形状结合" fill="#FFFFFF" fill-rule="nonzero"></path>
            <path d="M4.48083886,7.27 C5.89716672,7.27 7.06167771,8.30512088 7.06167771,9.605 C7.06167771,10.9048791 5.89716672,11.94 4.48083886,11.94 C3.06451099,11.94 1.9,10.9048791 1.9,9.605 C1.9,8.30512088 3.06451099,7.27 4.48083886,7.27 Z M4.475,7.73 C3.29099024,7.73 2.35,8.5788321 2.35,9.59903409 C2.35,10.6192361 3.29099024,11.4680682 4.475,11.4680682 C5.65900976,11.4680682 6.6,10.6192361 6.6,9.59903409 C6.6,8.5788321 5.65900976,7.73 4.475,7.73 Z M3.80167771,8.8 C4.24350551,8.8 4.60167771,9.1581722 4.60167771,9.6 C4.60167771,10.0418278 4.24350551,10.4 3.80167771,10.4 C3.35984991,10.4 3.00167771,10.0418278 3.00167771,9.6 C3.00167771,9.1581722 3.35984991,8.8 3.80167771,8.8 Z" id="形状结合" fill="#FFFFFF" fill-rule="nonzero" transform="translate(4.480839, 9.605000) scale(-1, 1) translate(-4.480839, -9.605000) "></path>
        </g>
    </g>
</svg>