<?xml version="1.0" encoding="UTF-8"?>
<svg width="16px" height="16px" viewBox="0 0 16 16" version="1.1" xmlns="http://www.w3.org/2000/svg" xmlns:xlink="http://www.w3.org/1999/xlink">
    <title>✧ Icon/EventWall</title>
    <defs>
        <linearGradient x1="-53.7138826%" y1="192.910908%" x2="78.2209507%" y2="26.0359043%" id="linearGradient-1">
            <stop stop-color="#0019F4" offset="0%"></stop>
            <stop stop-color="#8A62FF" offset="100%"></stop>
        </linearGradient>
    </defs>
    <g id="Symbols" stroke="none" stroke-width="1" fill="none" fill-rule="evenodd">
        <g id="✧-Icon/EventWall">
            <rect id="矩形" fill="#FFFFFF" opacity="0" x="0" y="0" width="16" height="16"></rect>
            <path d="M13.8,2 C14.4627417,2 15,2.5372583 15,3.2 L15,9.8 C15,10.4627417 14.4627417,11 13.8,11 L8.6,11 L8.599,12.799 L12.4,12.8 C12.7313708,12.8 13,13.0686292 13,13.4 C13,13.7313708 12.7313708,14 12.4,14 L3.6,14 C3.26862915,14 3,13.7313708 3,13.4 C3,13.0686292 3.26862915,12.8 3.6,12.8 L7.399,12.799 L7.4,11 L2.2,11 C1.5372583,11 1,10.4627417 1,9.8 L1,3.2 C1,2.5372583 1.5372583,2 2.2,2 L13.8,2 Z M12.4,7.35 L7.26666667,7.35 C6.93529582,7.35 6.66666667,7.61862915 6.66666667,7.95 C6.66666667,8.28137085 6.93529582,8.55 7.26666667,8.55 L7.26666667,8.55 L12.4,8.55 C12.7313708,8.55 13,8.28137085 13,7.95 C13,7.61862915 12.7313708,7.35 12.4,7.35 L12.4,7.35 Z M6.4,4.45 L3.6,4.45 C3.26862915,4.45 3,4.71862915 3,5.05 C3,5.38137085 3.26862915,5.65 3.6,5.65 L3.6,5.65 L6.4,5.65 C6.73137085,5.65 7,5.38137085 7,5.05 C7,4.71862915 6.73137085,4.45 6.4,4.45 L6.4,4.45 Z" id="形状结合" fill="url(#linearGradient-1)"></path>
        </g>
    </g>
</svg>