<?xml version="1.0" encoding="UTF-8"?>
<svg width="16px" height="16px" viewBox="0 0 16 16" version="1.1" xmlns="http://www.w3.org/2000/svg" xmlns:xlink="http://www.w3.org/1999/xlink">
    <title>✧ Icon/FireFightingDiagram</title>
    <defs>
        <linearGradient x1="-42.2716647%" y1="233.796387%" x2="72.9411021%" y2="16.791002%" id="linearGradient-1">
            <stop stop-color="#0019F4" offset="0%"></stop>
            <stop stop-color="#8A62FF" offset="100%"></stop>
        </linearGradient>
    </defs>
    <g id="Symbols" stroke="none" stroke-width="1" fill="none" fill-rule="evenodd">
        <g id="✧-Icon/FireFightingDiagram">
            <rect id="矩形" fill="#FFFFFF" opacity="0" x="0" y="0" width="16" height="16"></rect>
            <path d="M8.33918672,1.09824567 L13.1364808,2.49962913 C13.6482403,2.64912412 14,3.11834095 14,3.6514888 L14,6.34456667 C14,8.427736 13.5109226,10.6251199 12.25,12.25 C11.2252448,13.5705444 9.6070509,14.4648195 8.00086667,15 C6.39847032,14.4662405 4.77418253,13.5658307 3.75,12.25 C2.48376412,10.6231884 2,8.43103356 2,6.3429 L2,3.65172977 C2,3.11846766 2.3519077,2.64917906 2.86381539,2.49978363 L7.66652136,1.0981592 C7.88616599,1.03405799 8.11955858,1.03408799 8.33918672,1.09824567 Z" id="路径" fill="url(#linearGradient-1)"></path>
            <path d="M10.7251409,5.5266024 C10.9534541,5.28643636 11.3332316,5.27682772 11.5733976,5.50514091 C11.7868785,5.70808597 11.8181906,6.03070649 11.6621617,6.26857074 L11.5948591,6.3533976 L7.67819242,10.4733976 C7.47160781,10.690707 7.14192901,10.7187321 6.90369958,10.5547591 L6.81906926,10.4842641 L4.41573593,8.08093074 C4.18142136,7.84661616 4.18142136,7.46671717 4.41573593,7.2324026 C4.62401555,7.02412298 4.94732483,7.0009808 5.1811666,7.16297606 L5.26426407,7.2324026 L7.232,9.20010534 L10.7251409,5.5266024 Z" id="路径" fill="#FFFFFF" fill-rule="nonzero"></path>
        </g>
    </g>
</svg>