<?xml version="1.0" encoding="UTF-8"?>
<svg width="17px" height="17px" viewBox="0 0 17 17" version="1.1" xmlns="http://www.w3.org/2000/svg" xmlns:xlink="http://www.w3.org/1999/xlink">
    <title>✧ Icon/Polaris</title>
    <defs>
        <rect id="path-1" x="0" y="0" width="17" height="17"></rect>
        <linearGradient x1="96.8657116%" y1="261.186274%" x2="50%" y2="17.6669527%" id="linearGradient-3">
            <stop stop-color="#0019F4" offset="0%"></stop>
            <stop stop-color="#8A62FF" offset="100%"></stop>
        </linearGradient>
    </defs>
    <g id="Symbols" stroke="none" stroke-width="1" fill="none" fill-rule="evenodd">
        <g id="✧-Icon/Polaris">
            <g id="路径">
                <mask id="mask-2" fill="white">
                    <use xlink:href="#path-1"></use>
                </mask>
                <use id="蒙版" fill-opacity="0" fill="#FFFFFF" xlink:href="#path-1"></use>
                <path d="M4.85597508,1.95472504 C6.06466228,2.32425835 7.17064693,2.51739602 8.17392903,2.53413804 C9.03950207,2.54858208 9.98044572,2.42090757 10.99676,2.15111451 L11.4369305,2.02676349 C12.6534012,1.6629431 13.9344803,2.35415278 14.2983007,3.57062353 C14.4266093,3.99963637 14.4268387,4.45678142 14.2989607,4.88592282 C13.9450669,6.07354332 13.7767117,7.16675989 13.793895,8.16557253 C13.8092749,9.05956583 14.457502,10.5251726 14.8205725,11.6443891 L14.9648997,12.0693648 C15.3889488,13.2661742 14.7625023,14.5801391 13.565693,15.0041882 C13.0682051,15.1804563 12.5252167,15.1801844 12.0279056,15.0034182 C10.7503968,14.5493356 9.155914,13.8411974 8.16246047,13.797007 C7.28722416,13.7580751 6.3374968,13.8717777 5.31327839,14.1381147 L4.86977229,14.2616221 C3.65243268,14.6225117 2.37302511,13.9282218 2.0121355,12.7108822 C1.88587916,12.2849989 1.88570504,11.8316588 2.01163419,11.4056787 C2.35475936,10.2449903 2.52788995,9.17000563 2.53102599,8.18072454 C2.53387197,7.28294014 2.39454773,6.31310875 2.11305325,5.27123037 L1.9836882,4.82030617 C1.61529987,3.60521337 2.30168946,2.32154828 3.51678226,1.95315995 C3.95344414,1.82077406 4.41962383,1.82131888 4.85597508,1.95472504 Z" fill="url(#linearGradient-3)" mask="url(#mask-2)" transform="translate(8.490859, 8.495230) rotate(-315.000000) translate(-8.490859, -8.495230) "></path>
            </g>
            <path d="M8.49336947,5.01774025 C6.83651292,5.01774025 5.49336947,6.3608837 5.49336947,8.01774025 C5.49336947,9.67459681 6.83651292,11.0177403 8.49336947,11.0177403 C10.150226,11.0177403 11.4933695,9.67459681 11.4933695,8.01774025 C11.4933695,6.3608837 10.150226,5.01774025 8.49336947,5.01774025 Z M8.49738276,6.08175355 C9.56881769,6.08175355 10.4373828,6.95031862 10.4373828,8.02175355 C10.4373828,9.09318847 9.56881769,9.96175355 8.49738276,9.96175355 C7.42594784,9.96175355 6.55738276,9.09318847 6.55738276,8.02175355 C6.55738276,6.95031862 7.42594784,6.08175355 8.49738276,6.08175355 Z" id="路径" fill="#FFFFFF" transform="translate(8.493369, 8.017740) rotate(-360.000000) translate(-8.493369, -8.017740) "></path>
        </g>
    </g>
</svg>